<?xml version="1.0" encoding="UTF-8" standalone="no"?>
<!DOCTYPE svg PUBLIC "-//W3C//DTD SVG 1.1//EN" "http://www.w3.org/Graphics/SVG/1.1/DTD/svg11.dtd">
<svg width="100%" height="100%" viewBox="0 0 90 120" version="1.1" xmlns="http://www.w3.org/2000/svg" xmlns:xlink="http://www.w3.org/1999/xlink" xml:space="preserve" xmlns:serif="http://www.serif.com/" style="fill-rule:evenodd;clip-rule:evenodd;stroke-linejoin:round;stroke-miterlimit:2;">
    <g transform="matrix(0.66162,0,0,0.838426,-5.97755,-23.3753)">
        <path d="M79.449,30.722C81.468,31.111 82.236,164.045 81.078,164.524C61.209,172.736 27.427,153.219 22.931,112.801C20.133,87.648 24.638,61.116 26.503,47.27C29.467,25.274 62.056,27.373 79.449,30.722Z" style="fill:rgb(235,235,235);"/>
    </g>
    <g transform="matrix(-0.66162,0,0,0.838426,98.4999,-23.3128)">
        <path d="M79.449,30.722C81.468,31.111 82.236,164.045 81.078,164.524C61.209,172.736 27.427,153.219 22.931,112.801C20.133,87.648 24.638,61.116 26.503,47.27C29.467,25.274 62.056,27.373 79.449,30.722Z" style="fill:rgb(235,235,235);"/>
    </g>
</svg>
