<?xml version="1.0" encoding="UTF-8" standalone="no"?>
<!DOCTYPE svg PUBLIC "-//W3C//DTD SVG 1.1//EN" "http://www.w3.org/Graphics/SVG/1.1/DTD/svg11.dtd">
<svg width="100%" height="100%" viewBox="0 0 400 600" version="1.1" xmlns="http://www.w3.org/2000/svg" xmlns:xlink="http://www.w3.org/1999/xlink" xml:space="preserve" xmlns:serif="http://www.serif.com/" style="fill-rule:evenodd;clip-rule:evenodd;stroke-linecap:round;stroke-linejoin:round;stroke-miterlimit:1.5;">
    <g transform="matrix(1,0,0,1,-201.067,7.35458)">
        <path d="M379.94,161.142C337.835,161.391 314.867,172.663 294.79,212.672C273.136,265.666 264.537,310.761 265.249,355.622C268.072,376.197 282.606,388.573 307.825,380.385C332.929,372.236 328.902,294.207 327.098,230.973C327.098,230.973 328.34,472.782 328.649,532.967C328.723,547.181 338.078,559.676 351.696,563.748C368.62,568.834 387.233,561.069 400.504,543.827L400.287,360.863L400.504,543.827C415.978,562.924 432.448,572.134 452.432,562.154C459.503,558.649 465.02,552.642 467.914,545.299C467.97,545.321 467.97,545.321 467.97,545.321C471.558,536.217 473.397,526.517 473.39,516.73C473.348,456.422 473.189,232.54 473.189,232.54L475.003,341.729C479.609,379.171 499.884,394.104 526.089,374.505C531.095,370.82 534.499,365.357 535.602,359.24C540.124,334.219 532.644,296.295 517.99,242.717C516.886,238.685 515.532,234.726 513.936,230.863C501.358,200.728 485.549,179.22 471.815,172.003C450.549,160.827 448.612,163.977 432.872,162.642L379.94,161.142Z" style="fill:none;stroke:black;stroke-width:14.69px;"/>
    </g>
    <g transform="matrix(1.25917,0,0,1.01016,-303.51,1.698)">
        <ellipse cx="399.875" cy="101.507" rx="51.125" ry="61.5" style="fill:rgb(255,235,235);fill-opacity:0;stroke:black;stroke-width:14.4px;"/>
    </g>
</svg>
