<?xml version="1.0" encoding="UTF-8" standalone="no"?>
<!DOCTYPE svg PUBLIC "-//W3C//DTD SVG 1.1//EN" "http://www.w3.org/Graphics/SVG/1.1/DTD/svg11.dtd">
<svg width="100%" height="100%" viewBox="0 0 50 120" version="1.1" xmlns="http://www.w3.org/2000/svg" xmlns:xlink="http://www.w3.org/1999/xlink" xml:space="preserve" xmlns:serif="http://www.serif.com/" style="fill-rule:evenodd;clip-rule:evenodd;stroke-linejoin:round;stroke-miterlimit:2;">
    <g transform="matrix(1,0,0,1.46499,-12.6539,-11.0447)">
        <path d="M43.449,8.701C39.567,8.126 35.751,8.189 32.004,8.919C29.255,9.753 25.124,19.529 25.186,25.015C25.262,31.812 27.027,38.5 28.587,45C27.377,47.741 25.653,49.868 25.706,55.387C25.816,66.941 28.061,73.032 29.776,82.353C30.009,83.597 30.574,84.801 31.443,85.905C31.445,85.918 31.454,85.929 31.462,85.94C32.769,87.602 35.391,88.581 38.147,88.437C38.701,88.408 39.275,88.377 39.849,88.347C43.339,88.164 46.058,86.206 46.141,83.818C46.601,73.375 48.968,63.99 49.135,55.247C49.26,48.729 46.93,47.322 46.237,45.665C48.721,38.798 49.951,32.032 50.118,25.43C50.265,19.605 46.981,12.476 43.449,8.701Z" style="fill:rgb(235,235,235);"/>
    </g>
</svg>
